#!OML:ASF H:\Terrain\Walking\May29\JustinRory\Justin.ASF
:FULLY-SPECIFIED
:DEGREES
734
root 8.00881 17.6151 12.253 -358.639 -199.753 2.93131
lowerback 8.34704 -2.54946 -1.73195
upperback -0.235458 -3.09035 5.43852
thorax -4.53457 -1.34061 7.06571
lowerneck -13.9309 -4.40781 -13.6273
upperneck 15.1254 -3.0579 1.41348
head 7.22361 -2.0334 2.35016
rclavicle 3.97569e-016 2.3059e-014
rhumerus -42.637 -22.8004 -53.774
rradius 21.5816
rwrist -4.36286
rhand -18.1909 14.82
rfingers 7.12502
rthumb 8.08608 -15.0053
lclavicle 3.97569e-016 2.3059e-014
lhumerus -29.244 21.7452 72.4781
lradius 35.8388
lwrist -7.55767
lhand -3.4185 38.3473
lfingers 7.12502
lthumb 22.3123 67.0791
rfemur -2.34895 6.76615 12.3
rtibia 37.3398
rfoot -13.697 0.379473
rtoes -19.613
lfemur -11.2418 4.44665 -11.6468
ltibia 35.8376
lfoot -18.3922 3.69028
ltoes -18.6291
735
root 7.94432 17.6338 12.1899 -358.417 -199.661 3.30526
lowerback 8.87622 -3.12518 -2.00666
upperback -0.499062 -3.75564 6.4001
thorax -4.93983 -1.60557 8.3944
lowerneck -14.2271 -3.94653 -15.5371
upperneck 15.3085 -2.01818 1.94165
head 7.29588 -1.59059 2.93671
rclavicle 2.45499e-014 4.29375e-014
rhumerus -41.4281 -19.4838 -54.3255
rradius 22.2044
rwrist -6.17628
rhand -17.8357 14.7801
rfingers 7.12502
rthumb 8.42888 -15.0317
lclavicle 2.45499e-014 4.29375e-014
lhumerus -31.8971 26.0691 70.9112
lradius 33.9278
lwrist -7.90969
lhand -4.14804 38.377
lfingers 7.12502
lthumb 21.6118 67.191
rfemur -3.60063 6.69898 12.4308
rtibia 39.3619
rfoot -12.4138 0.411669
rtoes -19.6324
lfemur -11.0428 4.65879 -11.511
ltibia 35.4914
lfoot -18.3979 3.32715
ltoes -18.6444
736
root 7.87092 17.6444 12.1304 -358.394 -199.784 3.28828
lowerback 9.31387 -2.59909 -2.09336
upperback -0.607059 -3.06966 6.26485
thorax -5.41166 -1.24867 8.25538
lowerneck -13.8595 -4.13727 -14.547
upperneck 15.1856 -2.53967 1.73076
head 7.21422 -1.80419 2.65779
rclavicle -4.50247e-014 -1.59028e-014
rhumerus -42.6348 -19.5789 -54.1842
rradius 23.2667
rwrist -7.84981
rhand -17.3911 14.72
rfingers 7.12502
rthumb 8.85798 -15.0741
lclavicle -4.50247e-014 -1.59028e-014
lhumerus -32.614 27.0741 69.7076
lradius 31.5018
lwrist -8.79062
lhand -4.52867 38.954
lfingers 7.12502
lthumb 21.2462 67.8095
rfemur -4.97523 6.70372 12.0316
rtibia 41.4954
rfoot -10.7304 0.823778
rtoes -17.6981
lfemur -10.6977 4.74888 -11.8526
ltibia 35.0946
lfoot -18.5828 3.26908
ltoes -17.5119
737
root 7.79622 17.6561 12.0745 -358.624 -199.937 2.61293
lowerback 9.87267 -2.35297 -2.88834
upperback -0.773666 -2.84746 6.20181
thorax -5.90422 -1.10064 8.6716
lowerneck -14.1353 -4.02851 -14.4994
upperneck 15.6444 -2.41004 2.06973
head 7.40252 -1.72872 2.77775
rclavicle 1.78906e-014 -4.13472e-014
rhumerus -43.0482 -18.4501 -54.538
rradius 24.2508
rwrist -9.71696
rhand -17.3628 14.8039
rfingers 7.12502
rthumb 8.8853 -14.989
lclavicle 1.78906e-014 -4.13472e-014
lhumerus -34.1315 29.2828 67.9454
lradius 29.3209
lwrist -10.0806
lhand -4.53589 39.8594
lfingers 7.12502
lthumb 21.2393 68.7158
rfemur -6.43014 6.39884 10.8589
rtibia 43.6952
rfoot -8.91194 1.14848
rtoes -15.3047
lfemur -10.3404 4.75135 -12.9321
ltibia 34.6824
lfoot -18.9438 3.44614
ltoes -15.8637
738
root 7.72405 17.6701 12.0143 -358.601 -200.02 1.97647
lowerback 10.1794 -2.489 -3.71204
upperback -1.04523 -3.1131 6.41591
thorax -6.26919 -1.17826 9.46831
lowerneck -14.5213 -3.66567 -15.3714
upperneck 16.1658 -1.76914 2.78712
head 7.60401 -1.42599 3.22951
rclavicle -1.17283e-014 9.22361e-014
rhumerus -42.7548 -16.5798 -54.9496
rradius 25.0577
rwrist -10.9397
rhand -17.1958 14.8775
rfingers 7.12502
rthumb 9.04645 -14.9085
lclavicle -1.17283e-014 9.22361e-014
lhumerus -36.639 32.3973 65.5231
lradius 27.5988
lwrist -11.1883
lhand -3.82559 40.927
lfingers 7.12502
lthumb 21.9214 69.7051
rfemur -8.15645 5.92251 9.76436
rtibia 45.9191
rfoot -6.81327 1.10717
rtoes -12.8058
lfemur -10.2296 4.79448 -13.9845
ltibia 34.2376
lfoot -19.0475 3.63433
ltoes -15.2128
739
root 7.65788 17.6802 11.9543 -358.65 -200.107 1.80813
lowerback 10.6627 -3.0733 -4.22842
upperback -1.23653 -3.8831 7.02115
thorax -6.52906 -1.49358 10.6123
lowerneck -14.1974 -2.97202 -16.5488
upperneck 15.561 -0.627389 2.83804
head 7.255 -0.908046 3.54947
rclavicle -1.32192e-014 -3.02153e-014
rhumerus -41.5742 -13.8074 -55.5028
rradius 25.6495
rwrist -11.7769
rhand -16.4568 15.1957
rfingers 7.12502
rthumb 9.75942 -14.5582
lclavicle -1.32192e-014 -3.02153e-014
lhumerus -40.4634 36.34 62.2289
lradius 26.1777
lwrist -12.2441
lhand -3.3944 42.1867
lfingers 7.12502
lthumb 22.3354 70.9157
rfemur -9.61317 5.94709 9.37335
rtibia 48.1039
rfoot -4.76201 0.736432
rtoes -9.19286
lfemur -9.85267 4.96206 -14.4616
ltibia 33.8056
lfoot -18.9624 3.67386
ltoes -15.0807
740
root 7.59138 17.6886 11.8943 -358.782 -200.195 1.60261
lowerback 10.6645 -2.30814 -3.85324
upperback -0.950338 -2.9263 6.18691
thorax -6.48288 -1.08445 9.30156
lowerneck -13.6961 -3.37368 -14.1767
upperneck 14.7311 -1.76227 2.30725
head 6.96176 -1.35355 2.87334
rclavicle -2.13694e-014 1.00187e-013
rhumerus -42.9735 -15.745 -55.8955
rradius 26.7152
rwrist -12.5674
rhand -15.6361 15.7617
rfingers 7.12502
rthumb 10.5512 -13.9535
lclavicle -2.13694e-014 1.00187e-013
lhumerus -40.0897 36.7521 60.4672
lradius 23.9604
lwrist -14.3538
lhand -3.59039 42.9595
lfingers 7.12502
lthumb 22.1473 71.7109
rfemur -11.0008 5.91617 8.96147
rtibia 50.2284
rfoot -3.18453 0.512186
rtoes -6.37409
lfemur -9.44733 4.952 -14.9855
ltibia 33.433
lfoot -18.9477 3.76993
ltoes -14.6887
741
root 7.5228 17.6956 11.8319 -358.788 -200.281 1.16691
lowerback 10.3943 -2.11378 -3.70752
upperback -0.744738 -2.72515 5.61628
thorax -6.17977 -1.0368 8.52426
lowerneck -13.7404 -3.34424 -13.181
upperneck 14.3993 -1.98503 2.39046
head 6.85961 -1.40029 2.71737
rclavicle 1.25234e-014 1.90833e-014
rhumerus -43.2466 -15.8031 -56.946
rradius 27.6892
rwrist -13.5284
rhand -15.2864 15.6657
rfingers 7.12502
rthumb 10.8886 -14.032
lclavicle 1.25234e-014 1.90833e-014
lhumerus -41.4259 38.9052 57.3263
lradius 22.1638
lwrist -16.8889
lhand -3.63215 43.4868
lfingers 7.12502
lthumb 22.1072 72.243
rfemur -12.6095 5.53092 8.24286
rtibia 52.2804
rfoot -2.04449 0.302897
rtoes -7.9492
lfemur -9.2904 4.93582 -15.793
ltibia 33.0866
lfoot -18.9762 3.93308
ltoes -14.9043
742
root 7.4643 17.6978 11.7749 -358.897 -200.31 0.731814
lowerback 10.1539 -2.37196 -3.74027
upperback -0.485446 -3.11352 5.3128
thorax -5.71473 -1.26779 8.23221
lowerneck -13.8752 -2.96543 -13.1649
upperneck 14.0319 -1.57295 2.88139
head 6.72818 -1.15552 2.91493
rclavicle -1.0138e-013 -3.97569e-014
rhumerus -42.5915 -14.8767 -58.2281
rradius 28.4066
rwrist -14.2406
rhand -15.0269 15.3337
rfingers 7.12502
rthumb 11.1388 -14.3507
lclavicle -1.0138e-013 -3.97569e-014
lhumerus -44.2151 41.7631 53.23
lradius 20.8225
lwrist -19.022
lhand -3.6299 44.0606
lfingers 7.12502
lthumb 22.1093 72.8165
rfemur -14.0385 5.13297 7.6455
rtibia 54.2399
rfoot -1.10287 -0.510286
rtoes -11.0121
lfemur -9.00726 5.12465 -16.5102
ltibia 32.7361
lfoot -19.0194 3.86695
ltoes -15.4664
743
root 7.41314 17.693 11.7233 -359.173 -200.357 0.254389
lowerback 9.86553 -2.92931 -3.76488
upperback -0.0551567 -3.88715 5.0502
thorax -4.98243 -1.70007 8.0118
lowerneck -14.3664 -2.44087 -13.9753
upperneck 13.753 -0.825895 3.93948
head 6.66247 -0.746132 3.46361
rclavicle 1.91827e-014 -2.06736e-014
rhumerus -41.2561 -13.4432 -59.8458
rradius 28.969
rwrist -14.8674
rhand -14.523 15.6113
rfingers 7.12502
rthumb 11.6248 -14.0462
lclavicle 1.91827e-014 -2.06736e-014
lhumerus -47.9829 44.9296 48.2468
lradius 19.7593
lwrist -21.1831
lhand -3.44883 44.6467
lfingers 7.12502
lthumb 22.2832 73.382
rfemur -15.1984 4.76777 7.1095
rtibia 56.0779
rfoot -0.401767 -1.98786
rtoes -8.74223
lfemur -8.57352 5.43069 -17.204
ltibia 32.3984
lfoot -18.8129 3.711
ltoes -16.3912
744
root 7.36259 17.6979 11.6725 -359.235 -200.437 -0.358893
lowerback 8.78916 -2.4261 -2.9879
upperback 0.78594 -3.25491 3.46378
thorax -3.73485 -1.49852 5.6795
lowerneck -14.9036 -2.81043 -11.7111
upperneck 13.3217 -1.91426 4.54899
head 6.6806 -1.11116 3.18463
rclavicle 4.63168e-014 -1.03368e-014
rhumerus -41.6502 -16.7459 -61.2524
rradius 29.6127
rwrist -14.5988
rhand -14.208 16.2008
rfingers 7.12502
rthumb 11.9285 -13.4394
lclavicle 4.63168e-014 -1.03368e-014
lhumerus -46.8655 45.8269 45.7769
lradius 18.2623
lwrist -24.0837
lhand -3.16359 45.2814
lfingers 7.12502
lthumb 22.557 73.9837
rfemur -16.6142 4.25918 6.47256
rtibia 57.7338
rfoot -0.463407 -3.61521
rtoes -4.02616
lfemur -8.51395 5.90044 -18.0537
ltibia 32.0985
lfoot -18.5463 3.4536
ltoes -16.47
745
root 7.31497 17.712 11.6211 -359.261 -200.455 -0.721043
lowerback 6.84753 -2.51842 -1.49216
upperback 2.28283 -3.29489 1.61119
thorax -1.2973 -1.60018 2.74806
lowerneck -15.6944 -2.76581 -9.63442
upperneck 12.3197 -2.42919 5.55734
head 6.51065 -1.1617 3.11423
rclavicle 4.90998e-014 1.11319e-014
rhumerus -40.3855 -20.1633 -63.9308
rradius 29.7562
rwrist -13.1229
rhand -14.0385 16.7803
rfingers 7.12502
rthumb 12.092 -12.8503
lclavicle 4.90998e-014 1.11319e-014
lhumerus -45.6114 47.4795 42.8747
lradius 17.1331
lwrist -26.1183
lhand -2.99176 46.3656
lfingers 7.12502
lthumb 22.7219 75.0478
rfemur -17.9503 3.60415 6.18549
rtibia 59.1741
rfoot -1.12744 -5.02766
rtoes -0.797715
lfemur -8.40694 6.25055 -18.6357
ltibia 31.8192
lfoot -18.7167 3.18168
ltoes -15.0799
746
root 7.26816 17.7216 11.5673 -359.35 -200.525 -0.395434
lowerback 9.09332 -2.27461 -3.00006
upperback 1.05621 -3.0683 3.18804
thorax -3.65885 -1.41223 5.3819
lowerneck -14.8998 -2.68661 -10.9502
upperneck 12.9033 -1.9441 4.64465
head 6.53675 -1.07581 3.08623
rclavicle -6.65929e-015 3.18055e-015
rhumerus -41.4461 -17.3571 -62.1642
rradius 30.5548
rwrist -13.5189
rhand -14.1705 17.1118
rfingers 7.12502
rthumb 11.9647 -12.5263
lclavicle -6.65929e-015 3.18055e-015
lhumerus -51.4525 47.5826 40.0676
lradius 16.8797
lwrist -27.5326
lhand -2.94674 47.3952
lfingers 7.12502
lthumb 22.7651 76.0721
rfemur -18.7867 3.09996 6.69504
rtibia 60.3264
rfoot -2.36783 -6.6316
rtoes 2.47228
lfemur -7.90549 6.50504 -18.4831
ltibia 31.5244
lfoot -18.9225 3.08279
ltoes -14.5276
